<?xml version="1.0" standalone="no"?><svg xmlns="http://www.w3.org/2000/svg" viewBox="0 0 1440 320"><path fill="#D98859" fill-opacity="1" d="M0,96L24,112C48,128,96,160,144,176C192,192,240,192,288,181.3C336,171,384,149,432,154.7C480,160,528,192,576,218.7C624,245,672,267,720,245.3C768,224,816,160,864,144C912,128,960,160,1008,197.3C1056,235,1104,277,1152,277.3C1200,277,1248,235,1296,202.7C1344,171,1392,149,1416,138.7L1440,128L1440,0L1416,0C1392,0,1344,0,1296,0C1248,0,1200,0,1152,0C1104,0,1056,0,1008,0C960,0,912,0,864,0C816,0,768,0,720,0C672,0,624,0,576,0C528,0,480,0,432,0C384,0,336,0,288,0C240,0,192,0,144,0C96,0,48,0,24,0L0,0Z"></path></svg>