<?xml version="1.0" standalone="no"?><svg xmlns="http://www.w3.org/2000/svg" viewBox="0 0 1440 320"><path fill="#D98859" fill-opacity="1" d="M0,160L12.6,170.7C25.3,181,51,203,76,192C101.1,181,126,139,152,138.7C176.8,139,202,181,227,197.3C252.6,213,278,203,303,213.3C328.4,224,354,256,379,229.3C404.2,203,429,117,455,96C480,75,505,117,531,138.7C555.8,160,581,160,606,176C631.6,192,657,224,682,213.3C707.4,203,733,149,758,128C783.2,107,808,117,834,117.3C858.9,117,884,107,909,128C934.7,149,960,203,985,186.7C1010.5,171,1036,85,1061,96C1086.3,107,1112,213,1137,234.7C1162.1,256,1187,192,1213,154.7C1237.9,117,1263,107,1288,117.3C1313.7,128,1339,160,1364,144C1389.5,128,1415,64,1427,32L1440,0L1440,320L1427.4,320C1414.7,320,1389,320,1364,320C1338.9,320,1314,320,1288,320C1263.2,320,1238,320,1213,320C1187.4,320,1162,320,1137,320C1111.6,320,1086,320,1061,320C1035.8,320,1011,320,985,320C960,320,935,320,909,320C884.2,320,859,320,834,320C808.4,320,783,320,758,320C732.6,320,707,320,682,320C656.8,320,632,320,606,320C581.1,320,556,320,531,320C505.3,320,480,320,455,320C429.5,320,404,320,379,320C353.7,320,328,320,303,320C277.9,320,253,320,227,320C202.1,320,177,320,152,320C126.3,320,101,320,76,320C50.5,320,25,320,13,320L0,320Z"></path></svg>