<?xml version="1.0" standalone="no"?><svg xmlns="http://www.w3.org/2000/svg" viewBox="0 0 1440 320"><path fill="#f9c57d" fill-opacity="1" d="M0,96L14.1,106.7C28.2,117,56,139,85,176C112.9,213,141,267,169,261.3C197.6,256,226,192,254,186.7C282.4,181,311,235,339,224C367.1,213,395,139,424,112C451.8,85,480,107,508,122.7C536.5,139,565,149,593,138.7C621.2,128,649,96,678,112C705.9,128,734,192,762,197.3C790.6,203,819,149,847,112C875.3,75,904,53,932,53.3C960,53,988,75,1016,112C1044.7,149,1073,203,1101,197.3C1129.4,192,1158,128,1186,112C1214.1,96,1242,128,1271,117.3C1298.8,107,1327,53,1355,53.3C1383.5,53,1412,107,1426,133.3L1440,160L1440,320L1425.9,320C1411.8,320,1384,320,1355,320C1327.1,320,1299,320,1271,320C1242.4,320,1214,320,1186,320C1157.6,320,1129,320,1101,320C1072.9,320,1045,320,1016,320C988.2,320,960,320,932,320C903.5,320,875,320,847,320C818.8,320,791,320,762,320C734.1,320,706,320,678,320C649.4,320,621,320,593,320C564.7,320,536,320,508,320C480,320,452,320,424,320C395.3,320,367,320,339,320C310.6,320,282,320,254,320C225.9,320,198,320,169,320C141.2,320,113,320,85,320C56.5,320,28,320,14,320L0,320Z"></path></svg>