<?xml version="1.0" standalone="no"?><svg xmlns="http://www.w3.org/2000/svg" viewBox="0 0 1440 320"><path fill="#C90002" fill-opacity="1" d="M0,128L18.5,138.7C36.9,149,74,171,111,186.7C147.7,203,185,213,222,197.3C258.5,181,295,139,332,133.3C369.2,128,406,160,443,186.7C480,213,517,235,554,229.3C590.8,224,628,192,665,165.3C701.5,139,738,117,775,96C812.3,75,849,53,886,48C923.1,43,960,53,997,85.3C1033.8,117,1071,171,1108,192C1144.6,213,1182,203,1218,208C1255.4,213,1292,235,1329,229.3C1366.2,224,1403,192,1422,176L1440,160L1440,0L1421.5,0C1403.1,0,1366,0,1329,0C1292.3,0,1255,0,1218,0C1181.5,0,1145,0,1108,0C1070.8,0,1034,0,997,0C960,0,923,0,886,0C849.2,0,812,0,775,0C738.5,0,702,0,665,0C627.7,0,591,0,554,0C516.9,0,480,0,443,0C406.2,0,369,0,332,0C295.4,0,258,0,222,0C184.6,0,148,0,111,0C73.8,0,37,0,18,0L0,0Z"></path></svg>